<svg width="469" height="214" viewBox="0 0 469 214" fill="none" xmlns="http://www.w3.org/2000/svg">
<g filter="url(#filter0_d_4433_9232)">
<rect x="320.35" y="2.35" width="66.9061" height="91.3" rx="6.65" fill="white" stroke="url(#paint0_linear_4433_9232)" stroke-width="0.7"/>
<rect x="325.312" y="11.5938" width="41.1658" height="6.39572" rx="3.19786" fill="#EFEFEF"/>
<rect x="325.312" y="24.9922" width="56.7261" height="2.2139" rx="1.10695" fill="#EFEFEF"/>
<rect x="325.312" y="29.6641" width="56.7261" height="2.2139" rx="1.10695" fill="#EFEFEF"/>
<rect x="325.312" y="38.2344" width="56.7261" height="2.2139" rx="1.10695" fill="#EFEFEF"/>
<rect x="325.312" y="42.9062" width="56.7261" height="2.2139" rx="1.10695" fill="#EFEFEF"/>
<rect x="325.312" y="47.5859" width="56.7261" height="2.2139" rx="1.10695" fill="#EFEFEF"/>
<rect x="325.312" y="52.25" width="56.7261" height="2.2139" rx="1.10695" fill="#EFEFEF"/>
<rect x="325.312" y="56.9219" width="56.7261" height="2.2139" rx="1.10695" fill="#EFEFEF"/>
<rect x="325.312" y="61.5938" width="56.7261" height="2.2139" rx="1.10695" fill="#EFEFEF"/>
<rect x="325.312" y="70.9922" width="56.7261" height="2.2139" rx="1.10695" fill="#EFEFEF"/>
<rect x="325.312" y="75.6641" width="56.7261" height="2.2139" rx="1.10695" fill="#EFEFEF"/>
<rect x="325.312" y="80.3359" width="56.7261" height="2.2139" rx="1.10695" fill="#EFEFEF"/>
</g>
<g filter="url(#filter1_d_4433_9232)">
<rect x="397.35" y="2.35" width="66.9061" height="91.3" rx="6.65" fill="white" stroke="url(#paint1_linear_4433_9232)" stroke-width="0.7"/>
<rect x="402.312" y="11.5938" width="41.1658" height="6.39572" rx="3.19786" fill="#EFEFEF"/>
<rect x="402.312" y="24.9922" width="56.7261" height="2.2139" rx="1.10695" fill="#EFEFEF"/>
<rect x="402.312" y="29.6641" width="56.7261" height="2.2139" rx="1.10695" fill="#EFEFEF"/>
<rect x="402.312" y="38.2344" width="56.7261" height="2.2139" rx="1.10695" fill="#EFEFEF"/>
<rect x="402.312" y="42.9062" width="56.7261" height="2.2139" rx="1.10695" fill="#EFEFEF"/>
<rect x="402.312" y="47.5859" width="56.7261" height="2.2139" rx="1.10695" fill="#EFEFEF"/>
<rect x="402.312" y="52.25" width="56.7261" height="2.2139" rx="1.10695" fill="#EFEFEF"/>
<rect x="402.312" y="56.9219" width="56.7261" height="2.2139" rx="1.10695" fill="#EFEFEF"/>
<rect x="402.312" y="61.5938" width="56.7261" height="2.2139" rx="1.10695" fill="#EFEFEF"/>
<rect x="402.312" y="70.9922" width="56.7261" height="2.2139" rx="1.10695" fill="#EFEFEF"/>
<rect x="402.312" y="75.6641" width="56.7261" height="2.2139" rx="1.10695" fill="#EFEFEF"/>
<rect x="402.312" y="80.3359" width="56.7261" height="2.2139" rx="1.10695" fill="#EFEFEF"/>
</g>
<g filter="url(#filter2_d_4433_9232)">
<rect x="397.35" y="106.35" width="66.9061" height="91.3" rx="6.65" fill="white" stroke="url(#paint2_linear_4433_9232)" stroke-width="0.7"/>
<rect x="402.312" y="115.594" width="41.1658" height="6.39572" rx="3.19786" fill="#EFEFEF"/>
<rect x="402.312" y="128.992" width="56.7261" height="2.2139" rx="1.10695" fill="#EFEFEF"/>
<rect x="402.312" y="133.664" width="56.7261" height="2.2139" rx="1.10695" fill="#EFEFEF"/>
<rect x="402.312" y="142.234" width="56.7261" height="2.2139" rx="1.10695" fill="#EFEFEF"/>
<rect x="402.312" y="146.906" width="56.7261" height="2.2139" rx="1.10695" fill="#EFEFEF"/>
<rect x="402.312" y="151.586" width="56.7261" height="2.2139" rx="1.10695" fill="#EFEFEF"/>
<rect x="402.312" y="156.25" width="56.7261" height="2.2139" rx="1.10695" fill="#EFEFEF"/>
<rect x="402.312" y="160.922" width="56.7261" height="2.2139" rx="1.10695" fill="#EFEFEF"/>
<rect x="402.312" y="165.594" width="56.7261" height="2.2139" rx="1.10695" fill="#EFEFEF"/>
<rect x="402.312" y="174.992" width="56.7261" height="2.2139" rx="1.10695" fill="#EFEFEF"/>
<rect x="402.312" y="179.664" width="56.7261" height="2.2139" rx="1.10695" fill="#EFEFEF"/>
<rect x="402.312" y="184.336" width="56.7261" height="2.2139" rx="1.10695" fill="#EFEFEF"/>
</g>
<g filter="url(#filter3_d_4433_9232)">
<rect x="320.35" y="106.35" width="66.9061" height="91.3" rx="6.65" fill="white" stroke="url(#paint3_linear_4433_9232)" stroke-width="0.7"/>
<rect x="325.312" y="115.594" width="41.1658" height="6.39572" rx="3.19786" fill="#EFEFEF"/>
<rect x="325.312" y="128.992" width="56.7261" height="2.2139" rx="1.10695" fill="#EFEFEF"/>
<rect x="325.312" y="133.664" width="56.7261" height="2.2139" rx="1.10695" fill="#EFEFEF"/>
<rect x="325.312" y="142.234" width="56.7261" height="2.2139" rx="1.10695" fill="#EFEFEF"/>
<rect x="325.312" y="146.906" width="56.7261" height="2.2139" rx="1.10695" fill="#EFEFEF"/>
<rect x="325.312" y="151.586" width="56.7261" height="2.2139" rx="1.10695" fill="#EFEFEF"/>
<rect x="325.312" y="156.25" width="56.7261" height="2.2139" rx="1.10695" fill="#EFEFEF"/>
<rect x="325.312" y="160.922" width="56.7261" height="2.2139" rx="1.10695" fill="#EFEFEF"/>
<rect x="325.312" y="165.594" width="56.7261" height="2.2139" rx="1.10695" fill="#EFEFEF"/>
<rect x="325.312" y="174.992" width="56.7261" height="2.2139" rx="1.10695" fill="#EFEFEF"/>
<rect x="325.312" y="179.664" width="56.7261" height="2.2139" rx="1.10695" fill="#EFEFEF"/>
<rect x="325.312" y="184.336" width="56.7261" height="2.2139" rx="1.10695" fill="#EFEFEF"/>
</g>
<path d="M78 188C103.532 168.956 95.9409 146.236 120.3 150.271C148.5 154.942 144.689 104.997 173.27 118.651C199.215 131.046 209.473 96.0136 219 82" stroke="url(#paint4_linear_4433_9232)" stroke-opacity="0.6" stroke-width="2" stroke-linejoin="round"/>
<path opacity="0.3" d="M146 188C165.014 173.088 159.36 155.298 177.5 158.458C198.5 162.115 195.662 123.007 216.946 133.698C236.266 143.404 243.905 115.973 251 105" stroke="url(#paint5_linear_4433_9232)" stroke-opacity="0.6" stroke-width="2" stroke-linejoin="round"/>
<path opacity="0.37" d="M27 180.5C60.5 154 50.5395 122.385 82.5 128C119.5 134.5 114.5 65 152 84C186.041 101.247 199.5 52.5 212 33" stroke="url(#paint6_linear_4433_9232)" stroke-opacity="0.6" stroke-width="2" stroke-linejoin="round"/>
<rect x="43.5" y="177.5" width="5" height="5" rx="2.5" stroke="#D99595"/>
<rect x="92.5" y="86.5" width="5" height="5" rx="2.5" fill="#FAEFE8" stroke="#F5A17B"/>
<rect opacity="0.26" x="193.5" y="86.5" width="5" height="5" rx="2.5" fill="#FAEFE8" stroke="#F5A17B"/>
<rect opacity="0.51" x="179.5" y="170.5" width="5" height="5" rx="2.5" fill="#FAEFE8" stroke="#F5A17B"/>
<rect opacity="0.26" x="129.5" y="12.5" width="5" height="5" rx="2.5" fill="#FAEFE8" stroke="#F5A17B"/>
<rect x="236.5" y="35.5" width="5" height="5" rx="2.5" fill="#FAEFE8" stroke="#F5A17B"/>
<path d="M6 4.5L0.226497 14.5H11.7735L6 4.5ZM258.5 208L248.5 202.227V213.773L258.5 208ZM5 13.5V195H7V13.5H5ZM19 209H249.5V207H19V209ZM5 195C5 202.732 11.268 209 19 209V207C12.3726 207 7 201.627 7 195H5Z" fill="url(#paint7_linear_4433_9232)"/>
<defs>
<filter id="filter0_d_4433_9232" x="318.1" y="0.0999999" width="73.4094" height="97.8" filterUnits="userSpaceOnUse" color-interpolation-filters="sRGB">
<feFlood flood-opacity="0" result="BackgroundImageFix"/>
<feColorMatrix in="SourceAlpha" type="matrix" values="0 0 0 0 0 0 0 0 0 0 0 0 0 0 0 0 0 0 127 0" result="hardAlpha"/>
<feOffset dx="1" dy="1"/>
<feGaussianBlur stdDeviation="1.45"/>
<feComposite in2="hardAlpha" operator="out"/>
<feColorMatrix type="matrix" values="0 0 0 0 0.530566 0 0 0 0 0.530566 0 0 0 0 0.530566 0 0 0 0.33 0"/>
<feBlend mode="normal" in2="BackgroundImageFix" result="effect1_dropShadow_4433_9232"/>
<feBlend mode="normal" in="SourceGraphic" in2="effect1_dropShadow_4433_9232" result="shape"/>
</filter>
<filter id="filter1_d_4433_9232" x="395.1" y="0.0999999" width="73.4094" height="97.8" filterUnits="userSpaceOnUse" color-interpolation-filters="sRGB">
<feFlood flood-opacity="0" result="BackgroundImageFix"/>
<feColorMatrix in="SourceAlpha" type="matrix" values="0 0 0 0 0 0 0 0 0 0 0 0 0 0 0 0 0 0 127 0" result="hardAlpha"/>
<feOffset dx="1" dy="1"/>
<feGaussianBlur stdDeviation="1.45"/>
<feComposite in2="hardAlpha" operator="out"/>
<feColorMatrix type="matrix" values="0 0 0 0 0.530566 0 0 0 0 0.530566 0 0 0 0 0.530566 0 0 0 0.33 0"/>
<feBlend mode="normal" in2="BackgroundImageFix" result="effect1_dropShadow_4433_9232"/>
<feBlend mode="normal" in="SourceGraphic" in2="effect1_dropShadow_4433_9232" result="shape"/>
</filter>
<filter id="filter2_d_4433_9232" x="395.1" y="104.1" width="73.4094" height="97.8" filterUnits="userSpaceOnUse" color-interpolation-filters="sRGB">
<feFlood flood-opacity="0" result="BackgroundImageFix"/>
<feColorMatrix in="SourceAlpha" type="matrix" values="0 0 0 0 0 0 0 0 0 0 0 0 0 0 0 0 0 0 127 0" result="hardAlpha"/>
<feOffset dx="1" dy="1"/>
<feGaussianBlur stdDeviation="1.45"/>
<feComposite in2="hardAlpha" operator="out"/>
<feColorMatrix type="matrix" values="0 0 0 0 0.530566 0 0 0 0 0.530566 0 0 0 0 0.530566 0 0 0 0.33 0"/>
<feBlend mode="normal" in2="BackgroundImageFix" result="effect1_dropShadow_4433_9232"/>
<feBlend mode="normal" in="SourceGraphic" in2="effect1_dropShadow_4433_9232" result="shape"/>
</filter>
<filter id="filter3_d_4433_9232" x="318.1" y="104.1" width="73.4094" height="97.8" filterUnits="userSpaceOnUse" color-interpolation-filters="sRGB">
<feFlood flood-opacity="0" result="BackgroundImageFix"/>
<feColorMatrix in="SourceAlpha" type="matrix" values="0 0 0 0 0 0 0 0 0 0 0 0 0 0 0 0 0 0 127 0" result="hardAlpha"/>
<feOffset dx="1" dy="1"/>
<feGaussianBlur stdDeviation="1.45"/>
<feComposite in2="hardAlpha" operator="out"/>
<feColorMatrix type="matrix" values="0 0 0 0 0.530566 0 0 0 0 0.530566 0 0 0 0 0.530566 0 0 0 0.33 0"/>
<feBlend mode="normal" in2="BackgroundImageFix" result="effect1_dropShadow_4433_9232"/>
<feBlend mode="normal" in="SourceGraphic" in2="effect1_dropShadow_4433_9232" result="shape"/>
</filter>
<linearGradient id="paint0_linear_4433_9232" x1="325.993" y1="0.00240652" x2="374.934" y2="93.8893" gradientUnits="userSpaceOnUse">
<stop stop-color="#FF3D3D" stop-opacity="0.65"/>
<stop offset="0.525" stop-color="#ED8449" stop-opacity="0.65"/>
<stop offset="1" stop-color="#3D7BFF" stop-opacity="0.65"/>
</linearGradient>
<linearGradient id="paint1_linear_4433_9232" x1="402.993" y1="0.00240652" x2="451.934" y2="93.8893" gradientUnits="userSpaceOnUse">
<stop stop-color="#FF3D3D" stop-opacity="0.65"/>
<stop offset="0.525" stop-color="#ED8449" stop-opacity="0.65"/>
<stop offset="1" stop-color="#3D7BFF" stop-opacity="0.65"/>
</linearGradient>
<linearGradient id="paint2_linear_4433_9232" x1="402.993" y1="104.002" x2="451.934" y2="197.889" gradientUnits="userSpaceOnUse">
<stop stop-color="#FF3D3D" stop-opacity="0.65"/>
<stop offset="0.525" stop-color="#ED8449" stop-opacity="0.65"/>
<stop offset="1" stop-color="#3D7BFF" stop-opacity="0.65"/>
</linearGradient>
<linearGradient id="paint3_linear_4433_9232" x1="325.993" y1="104.002" x2="374.934" y2="197.889" gradientUnits="userSpaceOnUse">
<stop stop-color="#FF3D3D" stop-opacity="0.65"/>
<stop offset="0.525" stop-color="#ED8449" stop-opacity="0.65"/>
<stop offset="1" stop-color="#3D7BFF" stop-opacity="0.65"/>
</linearGradient>
<linearGradient id="paint4_linear_4433_9232" x1="147.928" y1="70.861" x2="147.928" y2="207.403" gradientUnits="userSpaceOnUse">
<stop stop-color="#0F4FD9"/>
<stop offset="0.5" stop-color="#EC5821"/>
<stop offset="1" stop-color="#FFA033"/>
</linearGradient>
<linearGradient id="paint5_linear_4433_9232" x1="198.074" y1="96.278" x2="198.074" y2="203.193" gradientUnits="userSpaceOnUse">
<stop stop-color="#0F4FD9"/>
<stop offset="0.5" stop-color="#EC5821"/>
<stop offset="1" stop-color="#FFA033"/>
</linearGradient>
<linearGradient id="paint6_linear_4433_9232" x1="118.75" y1="17.5" x2="118.75" y2="207.5" gradientUnits="userSpaceOnUse">
<stop stop-color="#0F4FD9"/>
<stop offset="0.5" stop-color="#EC5821"/>
<stop offset="1" stop-color="#FFA033"/>
</linearGradient>
<linearGradient id="paint7_linear_4433_9232" x1="109" y1="-17" x2="6.00001" y2="233" gradientUnits="userSpaceOnUse">
<stop offset="0.294566" stop-color="#D90F0F" stop-opacity="0.4"/>
<stop offset="0.602637" stop-color="#0F4FD9" stop-opacity="0.4"/>
<stop offset="1" stop-color="#FFA033" stop-opacity="0.4"/>
</linearGradient>
</defs>
</svg>
