<svg width="24" height="24" viewBox="0 0 24 24" fill="none" xmlns="http://www.w3.org/2000/svg">
<path d="M10.9531 12.7013L9.50313 11.2763C9.31979 11.093 9.09063 11.0013 8.81563 11.0013C8.54063 11.0013 8.30312 11.1013 8.10313 11.3013C7.91979 11.4847 7.82812 11.718 7.82812 12.0013C7.82812 12.2847 7.91979 12.518 8.10313 12.7013L10.2531 14.8513C10.4531 15.0513 10.6865 15.1513 10.9531 15.1513C11.2198 15.1513 11.4531 15.0513 11.6531 14.8513L15.9031 10.6013C16.1031 10.4013 16.199 10.168 16.1906 9.90134C16.1823 9.63467 16.0865 9.40134 15.9031 9.20134C15.7031 9.00134 15.4656 8.89717 15.1906 8.88884C14.9156 8.88051 14.6781 8.97634 14.4781 9.17634L10.9531 12.7013ZM8.15313 21.7513L6.70312 19.3013L3.95312 18.7013C3.70312 18.6513 3.50312 18.5222 3.35313 18.3138C3.20312 18.1055 3.14479 17.8763 3.17813 17.6263L3.45312 14.8013L1.57812 12.6513C1.41146 12.468 1.32812 12.2513 1.32812 12.0013C1.32812 11.7513 1.41146 11.5347 1.57812 11.3513L3.45312 9.20134L3.17813 6.37634C3.14479 6.12634 3.20312 5.89717 3.35313 5.68884C3.50312 5.48051 3.70312 5.35134 3.95312 5.30134L6.70312 4.70134L8.15313 2.25134C8.28646 2.03467 8.46979 1.88884 8.70312 1.81384C8.93646 1.73884 9.16979 1.75134 9.40312 1.85134L12.0031 2.95134L14.6031 1.85134C14.8365 1.75134 15.0698 1.73884 15.3031 1.81384C15.5365 1.88884 15.7198 2.03467 15.8531 2.25134L17.3031 4.70134L20.0531 5.30134C20.3031 5.35134 20.5031 5.48051 20.6531 5.68884C20.8031 5.89717 20.8615 6.12634 20.8281 6.37634L20.5531 9.20134L22.4281 11.3513C22.5948 11.5347 22.6781 11.7513 22.6781 12.0013C22.6781 12.2513 22.5948 12.468 22.4281 12.6513L20.5531 14.8013L20.8281 17.6263C20.8615 17.8763 20.8031 18.1055 20.6531 18.3138C20.5031 18.5222 20.3031 18.6513 20.0531 18.7013L17.3031 19.3013L15.8531 21.7513C15.7198 21.968 15.5365 22.1138 15.3031 22.1888C15.0698 22.2638 14.8365 22.2513 14.6031 22.1513L12.0031 21.0513L9.40312 22.1513C9.16979 22.2513 8.93646 22.2638 8.70312 22.1888C8.46979 22.1138 8.28646 21.968 8.15313 21.7513ZM9.45312 19.9513L12.0031 18.8513L14.6031 19.9513L16.0031 17.5513L18.7531 16.9013L18.5031 14.1013L20.3531 12.0013L18.5031 9.85134L18.7531 7.05134L16.0031 6.45134L14.5531 4.05134L12.0031 5.15134L9.40312 4.05134L8.00313 6.45134L5.25312 7.05134L5.50313 9.85134L3.65313 12.0013L5.50313 14.1013L5.25312 16.9513L8.00313 17.5513L9.45312 19.9513Z" fill="#3CAA17" fill-opacity="0.82"/>
</svg>
