<svg width="15" height="15" viewBox="0 0 15 15" fill="none" xmlns="http://www.w3.org/2000/svg">
<path d="M7.5 9.03125C7.0749 9.03125 6.71338 8.88235 6.41544 8.58456C6.11765 8.28662 5.96875 7.9251 5.96875 7.5C5.96875 7.0749 6.11765 6.71337 6.41544 6.41544C6.71338 6.11765 7.0749 5.96875 7.5 5.96875C7.9251 5.96875 8.28662 6.11765 8.58456 6.41544C8.88235 6.71337 9.03125 7.0749 9.03125 7.5C9.03125 7.9251 8.88235 8.28662 8.58456 8.58456C8.28662 8.88235 7.9251 9.03125 7.5 9.03125ZM6.84375 3.34375V0.71875C6.84375 0.532813 6.90668 0.37699 7.03253 0.251281C7.15839 0.125427 7.31428 0.0625 7.50022 0.0625C7.6863 0.0625 7.84212 0.125427 7.96769 0.251281C8.0934 0.37699 8.15625 0.532813 8.15625 0.71875V3.34375C8.15625 3.52969 8.09332 3.68558 7.96747 3.81144C7.84161 3.93715 7.68572 4 7.49978 4C7.3137 4 7.15787 3.93715 7.03231 3.81144C6.9066 3.68558 6.84375 3.52969 6.84375 3.34375ZM6.84375 14.2812V11.6562C6.84375 11.4703 6.90668 11.3144 7.03253 11.1886C7.15839 11.0629 7.31428 11 7.50022 11C7.6863 11 7.84212 11.0629 7.96769 11.1886C8.0934 11.3144 8.15625 11.4703 8.15625 11.6562V14.2812C8.15625 14.4672 8.09332 14.623 7.96747 14.7487C7.84161 14.8746 7.68572 14.9375 7.49978 14.9375C7.3137 14.9375 7.15787 14.8746 7.03231 14.7487C6.9066 14.623 6.84375 14.4672 6.84375 14.2812ZM11.6562 6.84375H14.2812C14.4672 6.84375 14.623 6.90668 14.7487 7.03253C14.8746 7.15839 14.9375 7.31428 14.9375 7.50022C14.9375 7.6863 14.8746 7.84212 14.7487 7.96769C14.623 8.0934 14.4672 8.15625 14.2812 8.15625H11.6562C11.4703 8.15625 11.3144 8.09332 11.1886 7.96747C11.0629 7.84161 11 7.68572 11 7.49978C11 7.3137 11.0629 7.15787 11.1886 7.03231C11.3144 6.9066 11.4703 6.84375 11.6562 6.84375ZM0.71875 6.84375H3.34375C3.52969 6.84375 3.68558 6.90668 3.81144 7.03253C3.93715 7.15839 4 7.31428 4 7.50022C4 7.6863 3.93715 7.84212 3.81144 7.96769C3.68558 8.0934 3.52969 8.15625 3.34375 8.15625H0.71875C0.532813 8.15625 0.37699 8.09332 0.251281 7.96747C0.125427 7.84161 0.0625 7.68572 0.0625 7.49978C0.0625 7.3137 0.125427 7.15787 0.251281 7.03231C0.37699 6.9066 0.532813 6.84375 0.71875 6.84375Z" fill="#676767" fill-opacity="0.66"/>
</svg>
