<?xml version="1.0" encoding="UTF-8" standalone="no"?>
<svg
   xmlns:dc="http://purl.org/dc/elements/1.1/"
   xmlns:cc="http://creativecommons.org/ns#"
   xmlns:rdf="http://www.w3.org/1999/02/22-rdf-syntax-ns#"
   xmlns:svg="http://www.w3.org/2000/svg"
   xmlns="http://www.w3.org/2000/svg"
   version="1.1"
   id="svg2"
   height="65.125"
   width="228.96875">
  <g
     transform="translate(-42.625,-54.09375)"
     id="layer1">
    <path
       id="path3846"
       d="m 43.120887,54.584004 227.861253,0.01032 0.11755,64.134366 -227.955128,-0.11206 z"
       style="fill:#b8352b;fill-opacity:1;stroke:#b8352b;stroke-width:1px;stroke-linecap:butt;stroke-linejoin:miter;stroke-opacity:0" />
    <path
       id="path3050"
       d="m 75.580357,75.17468 0.08929,27.94643 4.866072,-0.0446 1.116071,-0.89286 -0.08929,-17.991073 c 0,0 0.03418,-1.336867 2.52878,-2.738534 3.237765,-1.819239 5.191262,-1.778983 5.191262,-1.778983 0,0 2.440226,2.911229 2.547815,-0.768198 0.11345,-3.879864 -0.112899,-3.756436 -2.092164,-3.899588 -1.197697,-0.07942 -3.410458,0.08511 -5.911983,1.816018 -0.766241,0.530195 -2.26371,0.315673 -2.26371,0.315673 l 0,-1.830357 z"
       style="fill:#000000;fill-opacity:1;stroke:#000000;stroke-width:1px;stroke-linecap:butt;stroke-linejoin:miter;stroke-opacity:1" />
    <path
       id="path3054"
       d="m 115.25888,90.996743 c 0,0 0.91997,-3.136022 1.5052,-5.015864 0.7997,-2.568815 0.5292,-3.974698 -0.88071,-6.359091 -1.64977,-2.79002 -5.43692,-4.134608 -6.77621,-4.31318 -1.33928,-0.178571 -5.75893,-0.08929 -7.1875,0.625 -1.42857,0.714286 -5.624997,4.419643 -6.339283,8.705357 -0.714285,4.285715 0.365762,11.362005 1.386621,13.036612 1.383031,2.268713 4.281232,4.687493 7.495512,5.133923 3.21429,0.44643 2.66753,0.14723 6.33732,-0.0443 0.70893,-0.037 0.93537,-1.56677 1.7704,-3.315044 0.79585,-1.579042 1.54139,-3.748051 1.54139,-3.748051 0,0 -2.38747,1.797553 -4.06604,2.333267 -0.77024,0.245821 -3.92947,0.442843 -5.09018,-0.405375 -1.16072,-0.848215 -2.5632,-2.874409 -2.90538,-3.792849 -0.57945,-1.55532 -0.44285,-2.858937 -0.44285,-2.858937 z"
       style="fill:#000000;fill-opacity:1;stroke:#000000;stroke-width:1px;stroke-linecap:butt;stroke-linejoin:miter;stroke-opacity:1" />
    <path
       id="path3056"
       d="m 116.48322,110.14239 5.99778,0.0631 15.65736,-45.204328 -6.18718,0 z"
       style="fill:#000000;fill-opacity:1;stroke:#000000;stroke-width:1px;stroke-linecap:butt;stroke-linejoin:miter;stroke-opacity:1" />
    <path
       id="path3826"
       d="m 140.28938,77.114784 -5.06152,15.507777 c 0,0 -0.32074,3.761962 2.67034,6.529818 3.2835,3.038451 4.91475,3.663401 6.43261,3.708051 1.51786,0.0446 5.79723,0.43721 7.16919,-0.52504 0.87119,-0.61099 2.33929,-1.75892 2.33929,-1.75892 l -2.05582,-4.206305 c 0,0 -2.49776,1.974157 -5.84597,1.036657 -3.34821,-0.9375 -4.0625,-4.464285 -4.0625,-4.464285 0,0 -0.84821,-5.803572 0.13393,-7.723215 0.98214,-1.919642 2.29464,-3.402279 3.5,-3.982636 1.20535,-0.580357 2.53975,-0.818288 3.65403,-0.05487 1.25973,0.863065 1.85845,1.763415 1.85845,1.763415 l 2.67188,-4.861359 c 0,0 -0.0138,0.855911 -2.3295,-1.179291 -1.40234,-1.23249 -8.93817,-2.417979 -11.07441,0.210203 z"
       style="fill:#ffffff;fill-opacity:1;stroke:#ffffff;stroke-width:1px;stroke-linecap:butt;stroke-linejoin:miter;stroke-opacity:1" />
    <path
       id="path3830"
       d="m 168.75,75.130037 c 0,0 -3.92857,-1.071429 -8.57143,4.196428 -4.64285,5.267858 -4.58828,16.676443 0.80357,21.339285 5.16983,4.47084 11.37753,3.8427 16.07143,0.26785 4.83046,-3.678852 4.46429,-18.214277 0.80358,-22.32142 C 174.19643,74.505037 168.75,75.130037 168.75,75.130037 Z"
       style="fill:#ffffff;fill-opacity:1;stroke:#ffffff;stroke-width:1px;stroke-linecap:butt;stroke-linejoin:miter;stroke-opacity:1" />
    <path
       id="path3834"
       d="m 203.03571,64.415751 7.23215,0.178572 0.26785,39.196427 -7.41071,0.0893 -0.0893,-2.85715 c 0,0 -0.98214,4.73215 -10.44642,2.5 C 183.125,101.29075 185,83.51392 188.48214,78.692492 c 3.48215,-4.821429 11.69643,-2.857143 12.5,-2.321429 0.80357,0.535714 1.96608,1.875 1.96608,1.875 z"
       style="fill:#ffffff;fill-opacity:1;stroke:#ffffff;stroke-width:1px;stroke-linecap:butt;stroke-linejoin:miter;stroke-opacity:1" />
    <path
       id="path3840"
       d="m 222.60535,90.491666 16.35894,0.03123 c 0,0 1.07754,-6.208588 -3.6135,-11.956671 -2.48087,-3.039892 -6.72043,-3.847612 -10.13644,-3.362968 -4.24136,0.601742 -5.94058,2.598537 -7.21692,4.426411 -1.45294,2.080785 -2.88692,15.120727 1.2207,19.10305 4.93809,4.787462 8.43367,5.572642 14.58547,3.272322 2.63086,-0.98375 4.35714,-3.589286 4.35714,-3.589286 l -3.19642,-3.035715 c 0,0 -2.12501,2.696429 -6.23215,2.696428 -4.47233,-0.294697 -6.72881,-4.893462 -6.12682,-7.584801 z"
       style="fill:#ffffff;fill-opacity:1;stroke:#ffffff;stroke-width:1px;stroke-linecap:butt;stroke-linejoin:miter;stroke-opacity:1" />
    <path
       id="path3842"
       d="m 245.17857,75.130037 14.19643,14.017857 -14.10714,13.571426 -0.0893,-8.660711 5.35714,-4.821429 -5.26785,-5.446429 z"
       style="fill:#ffffff;fill-opacity:1;stroke:#ffffff;stroke-width:1px;stroke-linecap:butt;stroke-linejoin:miter;stroke-opacity:1" />
    <path
       id="path3844"
       d="m 69.419643,75.17468 -14.311865,14.162618 13.883929,13.928572 0.08929,-8.565084 -5.429796,-5.258884 5.749955,-5.906862 z"
       style="fill:#ffffff;fill-opacity:1;stroke:#ffffff;stroke-width:1px;stroke-linecap:butt;stroke-linejoin:miter;stroke-opacity:1" />
    <path
       id="path3052"
       d="m 101.51786,87.005037 11.16071,0 c 0,0 0.13393,-3.616072 -1.47321,-5.089286 -1.60715,-1.473214 -2.05357,-1.517857 -3.34822,-1.696429 -1.29464,-0.178571 -2.94643,0.133929 -3.57143,0.669643 -0.625,0.535715 -1.29464,0.625 -2.00892,1.830357 -0.71429,1.205358 -0.75893,4.285715 -0.75893,4.285715 z"
       style="fill:#b8352b;fill-opacity:1;stroke:#000000;stroke-width:1px;stroke-linecap:butt;stroke-linejoin:miter;stroke-opacity:1" />
    <path
       id="path3832"
       d="m 172.15179,82.478251 c 0,0 -2.94643,-3.303571 -6.25,-0.178571 -3.30358,3.125 -1.72193,11.898141 -0.71429,12.857143 1.50988,1.437006 4.64839,3.650269 7.23214,0.446429 2.23215,-2.767857 2.23215,-10.892858 -0.26785,-13.125001 z"
       style="fill:#b8352b;fill-opacity:1;stroke:#ffffff;stroke-width:1px;stroke-linecap:butt;stroke-linejoin:miter;stroke-opacity:1" />
    <path
       id="path3836"
       d="m 194.01786,83.880037 c 0,0 -0.89647,0.963884 -1.02246,3.433783 -0.14362,2.815745 -0.0444,6.613586 1.73673,8.709074 3.03571,3.571438 6.76125,0.219368 7.41072,-0.982142 0.89286,-1.651786 1.26785,-9.830358 -0.83929,-11.741072 -3.51996,-3.171522 -5.21009,-1.583855 -7.2857,0.580357 z"
       style="fill:#b8352b;fill-opacity:1;stroke:#ffffff;stroke-width:1px;stroke-linecap:butt;stroke-linejoin:miter;stroke-opacity:1" />
    <path
       id="path3838"
       d="m 222.23842,86.468425 11.06066,0 c 0,0 0.0983,-6.152638 -5.53122,-6.155329 -6.42919,-0.0031 -5.52944,6.155329 -5.52944,6.155329 z"
       style="fill:#b8352b;fill-opacity:1;stroke:#ffffff;stroke-width:1px;stroke-linecap:butt;stroke-linejoin:miter;stroke-opacity:1" />
  </g>
</svg>
