<svg width="478" height="251" viewBox="0 0 478 251" fill="none" xmlns="http://www.w3.org/2000/svg">
<g opacity="0.34" filter="url(#filter0_d_4277_4388)">
<rect x="26.2773" y="44" width="88.9659" height="118" rx="9" fill="white"/>
<rect x="33.2773" y="56.2969" width="54.172" height="8.20321" rx="4.1016" fill="#EFEFEF"/>
<rect x="33.2773" y="69.8672" width="74.6484" height="29.6578" rx="6" fill="#EFEFEF"/>
<rect x="33.2812" y="108.367" width="74.6484" height="2.83957" rx="1.41979" fill="#EFEFEF"/>
<rect x="33.2812" y="114.359" width="74.6484" height="2.83957" rx="1.41979" fill="#EFEFEF"/>
<rect x="33.2812" y="120.359" width="74.6484" height="2.83957" rx="1.41979" fill="#EFEFEF"/>
<rect x="33.2812" y="126.344" width="74.6484" height="2.83957" rx="1.41979" fill="#EFEFEF"/>
<rect x="33.2812" y="132.344" width="74.6484" height="2.83957" rx="1.41979" fill="#EFEFEF"/>
<rect x="33.2812" y="138.336" width="74.6484" height="2.83957" rx="1.41979" fill="#EFEFEF"/>
<rect x="33.2812" y="144.336" width="74.6484" height="2.83957" rx="1.41979" fill="#EFEFEF"/>
<rect x="33.2812" y="150.32" width="74.6484" height="2.83957" rx="1.41979" fill="#EFEFEF"/>
</g>
<g opacity="0.8" filter="url(#filter1_d_4277_4388)">
<rect x="64" y="33" width="108.562" height="143.992" rx="9" fill="white"/>
<rect x="72.543" y="48.0156" width="66.1043" height="10.0101" rx="5.00505" fill="#EFEFEF"/>
<rect x="72.543" y="64.5703" width="91.0911" height="36.1904" rx="6" fill="#EFEFEF"/>
<rect x="72.5469" y="111.555" width="91.0911" height="3.46504" rx="1.73252" fill="#EFEFEF"/>
<rect x="72.5469" y="118.875" width="91.0911" height="3.46504" rx="1.73252" fill="#EFEFEF"/>
<rect x="72.5469" y="126.188" width="91.0911" height="3.46504" rx="1.73252" fill="#EFEFEF"/>
<rect x="72.5469" y="133.508" width="91.0911" height="3.46504" rx="1.73252" fill="#EFEFEF"/>
<rect x="72.5469" y="140.812" width="91.0911" height="3.46504" rx="1.73252" fill="#EFEFEF"/>
<rect x="72.5469" y="148.141" width="91.0911" height="3.46504" rx="1.73252" fill="#EFEFEF"/>
<rect x="72.5469" y="155.445" width="91.0911" height="3.46504" rx="1.73252" fill="#EFEFEF"/>
<rect x="72.5469" y="162.758" width="91.0911" height="3.46504" rx="1.73252" fill="#EFEFEF"/>
</g>
<g filter="url(#filter2_d_4277_4388)">
<rect x="122" y="25.0312" width="118.224" height="156.806" rx="9" fill="white"/>
<rect x="131.305" y="41.3828" width="71.9872" height="10.9009" rx="5.45047" fill="#EFEFEF"/>
<rect x="131.305" y="59.4141" width="99.1976" height="39.4111" rx="6" fill="#EFEFEF"/>
<rect x="131.309" y="110.57" width="99.1976" height="3.77341" rx="1.8867" fill="#EFEFEF"/>
<rect x="131.309" y="118.539" width="99.1976" height="3.77341" rx="1.8867" fill="#EFEFEF"/>
<rect x="131.309" y="126.508" width="99.1976" height="3.77341" rx="1.8867" fill="#EFEFEF"/>
<rect x="131.309" y="134.477" width="99.1976" height="3.77341" rx="1.8867" fill="#EFEFEF"/>
<rect x="131.309" y="142.43" width="99.1976" height="3.77341" rx="1.8867" fill="#EFEFEF"/>
<rect x="131.309" y="150.414" width="99.1976" height="3.77341" rx="1.8867" fill="#EFEFEF"/>
<rect x="131.309" y="158.367" width="99.1976" height="3.77341" rx="1.8867" fill="#EFEFEF"/>
<rect x="131.309" y="166.328" width="99.1976" height="3.77341" rx="1.8867" fill="#EFEFEF"/>
</g>
<g opacity="0.34" filter="url(#filter3_d_4277_4388)">
<rect width="90.2728" height="119.733" rx="9" transform="matrix(-1 0 0 1 450 43.1641)" fill="white"/>
<rect width="54.9677" height="8.32371" rx="4.16186" transform="matrix(-1 0 0 1 442.891 55.6406)" fill="#EFEFEF"/>
<rect width="75.745" height="30.0934" rx="6" transform="matrix(-1 0 0 1 442.891 69.4062)" fill="#EFEFEF"/>
<rect width="75.745" height="2.88128" rx="1.44064" transform="matrix(-1 0 0 1 442.883 108.469)" fill="#EFEFEF"/>
<rect width="75.745" height="2.88128" rx="1.44064" transform="matrix(-1 0 0 1 442.883 114.547)" fill="#EFEFEF"/>
<rect width="75.745" height="2.88128" rx="1.44064" transform="matrix(-1 0 0 1 442.883 120.641)" fill="#EFEFEF"/>
<rect width="75.745" height="2.88128" rx="1.44064" transform="matrix(-1 0 0 1 442.883 126.711)" fill="#EFEFEF"/>
<rect width="75.745" height="2.88128" rx="1.44064" transform="matrix(-1 0 0 1 442.883 132.797)" fill="#EFEFEF"/>
<rect width="75.745" height="2.88128" rx="1.44064" transform="matrix(-1 0 0 1 442.883 138.883)" fill="#EFEFEF"/>
<rect width="75.745" height="2.88128" rx="1.44064" transform="matrix(-1 0 0 1 442.883 144.969)" fill="#EFEFEF"/>
<rect width="75.745" height="2.88128" rx="1.44064" transform="matrix(-1 0 0 1 442.883 151.039)" fill="#EFEFEF"/>
</g>
<g opacity="0.8" filter="url(#filter4_d_4277_4388)">
<rect width="110.157" height="146.107" rx="9" transform="matrix(-1 0 0 1 411.727 32)" fill="white"/>
<rect width="67.0753" height="10.1572" rx="5.07858" transform="matrix(-1 0 0 1 403.055 47.2344)" fill="#EFEFEF"/>
<rect width="92.4292" height="36.722" rx="6" transform="matrix(-1 0 0 1 403.055 64.0312)" fill="#EFEFEF"/>
<rect width="92.4292" height="3.51594" rx="1.75797" transform="matrix(-1 0 0 1 403.055 111.703)" fill="#EFEFEF"/>
<rect width="92.4292" height="3.51594" rx="1.75797" transform="matrix(-1 0 0 1 403.055 119.133)" fill="#EFEFEF"/>
<rect width="92.4292" height="3.51594" rx="1.75797" transform="matrix(-1 0 0 1 403.055 126.555)" fill="#EFEFEF"/>
<rect width="92.4292" height="3.51594" rx="1.75797" transform="matrix(-1 0 0 1 403.055 133.977)" fill="#EFEFEF"/>
<rect width="92.4292" height="3.51594" rx="1.75797" transform="matrix(-1 0 0 1 403.055 141.383)" fill="#EFEFEF"/>
<rect width="92.4292" height="3.51594" rx="1.75797" transform="matrix(-1 0 0 1 403.055 148.828)" fill="#EFEFEF"/>
<rect width="92.4292" height="3.51594" rx="1.75797" transform="matrix(-1 0 0 1 403.055 156.242)" fill="#EFEFEF"/>
<rect width="92.4292" height="3.51594" rx="1.75797" transform="matrix(-1 0 0 1 403.055 163.664)" fill="#EFEFEF"/>
</g>
<g filter="url(#filter5_d_4277_4388)">
<rect width="119.96" height="159.109" rx="9" transform="matrix(-1 0 0 1 360.188 23.8906)" fill="white"/>
<rect width="73.0446" height="11.0611" rx="5.53054" transform="matrix(-1 0 0 1 350.742 40.5)" fill="#EFEFEF"/>
<rect width="100.655" height="39.9901" rx="6" transform="matrix(-1 0 0 1 350.742 58.7969)" fill="#EFEFEF"/>
<rect width="100.655" height="3.82884" rx="1.91442" transform="matrix(-1 0 0 1 350.734 110.695)" fill="#EFEFEF"/>
<rect width="100.655" height="3.82884" rx="1.91442" transform="matrix(-1 0 0 1 350.734 118.781)" fill="#EFEFEF"/>
<rect width="100.655" height="3.82884" rx="1.91442" transform="matrix(-1 0 0 1 350.734 126.867)" fill="#EFEFEF"/>
<rect width="100.655" height="3.82884" rx="1.91442" transform="matrix(-1 0 0 1 350.734 134.945)" fill="#EFEFEF"/>
<rect width="100.655" height="3.82884" rx="1.91442" transform="matrix(-1 0 0 1 350.734 143.023)" fill="#EFEFEF"/>
<rect width="100.655" height="3.82884" rx="1.91442" transform="matrix(-1 0 0 1 350.734 151.125)" fill="#EFEFEF"/>
<rect width="100.655" height="3.82884" rx="1.91442" transform="matrix(-1 0 0 1 350.734 159.203)" fill="#EFEFEF"/>
<rect width="100.655" height="3.82884" rx="1.91442" transform="matrix(-1 0 0 1 350.734 167.273)" fill="#EFEFEF"/>
</g>
<path d="M58.8091 243.17C57.8231 243.17 56.9561 242.983 56.2081 242.609C55.4714 242.224 54.8481 241.663 54.3381 240.926L55.2901 239.872C55.8001 240.62 56.3384 241.153 56.9051 241.47C57.4831 241.787 58.1631 241.946 58.9451 241.946C59.4437 241.946 59.8914 241.861 60.2881 241.691C60.6961 241.521 61.0191 241.289 61.2571 240.994C61.4951 240.699 61.6141 240.365 61.6141 239.991C61.6141 239.742 61.5687 239.515 61.4781 239.311C61.3987 239.107 61.2684 238.926 61.0871 238.767C60.9171 238.608 60.7017 238.461 60.4411 238.325C60.1804 238.189 59.8801 238.07 59.5401 237.968C59.2114 237.855 58.8374 237.747 58.4181 237.645C57.8287 237.52 57.3131 237.356 56.8711 237.152C56.4404 236.948 56.0721 236.704 55.7661 236.421C55.4601 236.138 55.2334 235.815 55.0861 235.452C54.9387 235.078 54.8651 234.659 54.8651 234.194C54.8651 233.559 55.0407 232.998 55.3921 232.511C55.7547 232.024 56.2364 231.638 56.8371 231.355C57.4491 231.072 58.1347 230.93 58.8941 230.93C59.8121 230.93 60.5941 231.1 61.2401 231.44C61.8974 231.78 62.4244 232.262 62.8211 232.885L61.8691 233.82C61.5064 233.287 61.0757 232.879 60.5771 232.596C60.0897 232.301 59.5174 232.154 58.8601 232.154C58.3501 232.154 57.8967 232.239 57.5001 232.409C57.1034 232.579 56.7917 232.817 56.5651 233.123C56.3384 233.418 56.2251 233.763 56.2251 234.16C56.2251 234.443 56.2761 234.704 56.3781 234.942C56.4914 235.169 56.6557 235.367 56.8711 235.537C57.0864 235.707 57.3641 235.86 57.7041 235.996C58.0441 236.132 58.4464 236.251 58.9111 236.353C59.5457 236.5 60.1124 236.676 60.6111 236.88C61.1211 237.084 61.5517 237.322 61.9031 237.594C62.2544 237.866 62.5207 238.172 62.7021 238.512C62.8834 238.852 62.9741 239.237 62.9741 239.668C62.9741 240.371 62.7984 240.988 62.4471 241.521C62.1071 242.042 61.6254 242.45 61.0021 242.745C60.3787 243.028 59.6477 243.17 58.8091 243.17ZM69.102 243.17C68.2067 243.17 67.4134 242.977 66.722 242.592C66.0307 242.195 65.4867 241.651 65.09 240.96C64.7047 240.269 64.512 239.481 64.512 238.597C64.512 237.906 64.6197 237.277 64.835 236.71C65.0617 236.132 65.3677 235.639 65.753 235.231C66.1497 234.812 66.62 234.489 67.164 234.262C67.708 234.035 68.303 233.922 68.949 233.922C69.5157 233.922 70.0427 234.024 70.53 234.228C71.0287 234.432 71.4594 234.727 71.822 235.112C72.1847 235.486 72.4624 235.934 72.655 236.455C72.8477 236.965 72.9327 237.532 72.91 238.155L72.893 238.801H65.447L65.175 237.747H71.822L71.584 238.036L71.601 237.611C71.5784 237.124 71.4424 236.693 71.193 236.319C70.9437 235.945 70.6207 235.65 70.224 235.435C69.8387 235.22 69.4137 235.112 68.949 235.112C68.2917 235.112 67.725 235.254 67.249 235.537C66.773 235.809 66.4104 236.2 66.161 236.71C65.923 237.209 65.7984 237.809 65.787 238.512C65.7984 239.215 65.9457 239.827 66.229 240.348C66.5124 240.858 66.909 241.26 67.419 241.555C67.9404 241.838 68.541 241.98 69.221 241.98C69.7084 241.98 70.1617 241.901 70.581 241.742C71.0004 241.572 71.4254 241.294 71.856 240.909L72.502 241.827C72.23 242.099 71.907 242.337 71.533 242.541C71.1704 242.734 70.7794 242.887 70.36 243C69.9407 243.113 69.5214 243.17 69.102 243.17ZM80.4115 243V237.05C80.4115 236.472 80.2075 236.007 79.7995 235.656C79.3915 235.305 78.8532 235.129 78.1845 235.129C77.6292 235.129 77.1249 235.242 76.6715 235.469C76.2182 235.696 75.8159 236.036 75.4645 236.489L74.6145 235.639C75.1245 235.061 75.6799 234.63 76.2805 234.347C76.8925 234.064 77.5555 233.922 78.2695 233.922C78.9495 233.922 79.5389 234.035 80.0375 234.262C80.5362 234.489 80.9159 234.817 81.1765 235.248C81.4485 235.679 81.5845 236.2 81.5845 236.812V243H80.4115ZM77.3515 243.17C76.7735 243.17 76.2579 243.057 75.8045 242.83C75.3512 242.603 74.9885 242.292 74.7165 241.895C74.4559 241.487 74.3255 241.011 74.3255 240.467C74.3255 240.025 74.4049 239.634 74.5635 239.294C74.7335 238.954 74.9772 238.671 75.2945 238.444C75.6119 238.217 76.0142 238.047 76.5015 237.934C76.9889 237.809 77.5442 237.747 78.1675 237.747H80.9895L80.8875 238.818H77.9975C77.6009 238.818 77.2495 238.852 76.9435 238.92C76.6489 238.988 76.3939 239.096 76.1785 239.243C75.9745 239.379 75.8159 239.549 75.7025 239.753C75.6005 239.946 75.5495 240.178 75.5495 240.45C75.5495 240.767 75.6289 241.051 75.7875 241.3C75.9575 241.538 76.1785 241.725 76.4505 241.861C76.7339 241.986 77.0512 242.048 77.4025 242.048C77.8672 242.048 78.3035 241.969 78.7115 241.81C79.1195 241.64 79.4822 241.413 79.7995 241.13C80.1282 240.835 80.3889 240.507 80.5815 240.144L80.9385 240.96C80.6892 241.391 80.3775 241.776 80.0035 242.116C79.6295 242.445 79.2159 242.705 78.7625 242.898C78.3205 243.079 77.8502 243.17 77.3515 243.17ZM83.8652 243V234.075H85.1572L85.1742 236.659L85.0212 236.217C85.1345 235.809 85.3272 235.429 85.5992 235.078C85.8825 234.727 86.2225 234.449 86.6192 234.245C87.0159 234.03 87.4522 233.922 87.9282 233.922C88.1209 233.922 88.3022 233.939 88.4722 233.973C88.6422 233.996 88.7839 234.03 88.8972 234.075L88.5572 235.486C88.3985 235.429 88.2342 235.384 88.0642 235.35C87.9055 235.305 87.7525 235.282 87.6052 235.282C87.2539 235.282 86.9252 235.356 86.6192 235.503C86.3245 235.639 86.0695 235.826 85.8542 236.064C85.6389 236.302 85.4689 236.574 85.3442 236.88C85.2309 237.175 85.1742 237.481 85.1742 237.798V243H83.8652ZM93.6846 243.17C92.8346 243.17 92.0752 242.966 91.4066 242.558C90.7492 242.15 90.2279 241.6 89.8426 240.909C89.4686 240.206 89.2816 239.413 89.2816 238.529C89.2816 237.656 89.4686 236.874 89.8426 236.183C90.2279 235.48 90.7492 234.931 91.4066 234.534C92.0752 234.126 92.8346 233.922 93.6846 233.922C94.4552 233.922 95.1522 234.075 95.7756 234.381C96.3989 234.676 96.8919 235.089 97.2546 235.622L96.5066 236.506C96.3026 236.234 96.0532 235.996 95.7586 235.792C95.4639 235.577 95.1466 235.412 94.8066 235.299C94.4666 235.174 94.1266 235.112 93.7866 235.112C93.1632 235.112 92.6022 235.259 92.1036 235.554C91.6162 235.849 91.2309 236.257 90.9476 236.778C90.6642 237.288 90.5226 237.872 90.5226 238.529C90.5226 239.186 90.6642 239.776 90.9476 240.297C91.2422 240.818 91.6389 241.232 92.1376 241.538C92.6362 241.844 93.1916 241.997 93.8036 241.997C94.1436 241.997 94.4722 241.946 94.7896 241.844C95.1182 241.731 95.4242 241.572 95.7076 241.368C95.9909 241.164 96.2572 240.915 96.5066 240.62L97.2376 241.521C96.8636 242.008 96.3536 242.405 95.7076 242.711C95.0729 243.017 94.3986 243.17 93.6846 243.17ZM98.8564 243V230.42H100.148V235.979L99.8934 236.132C100.018 235.735 100.245 235.373 100.573 235.044C100.913 234.704 101.31 234.432 101.763 234.228C102.228 234.024 102.71 233.922 103.208 233.922C103.877 233.922 104.438 234.052 104.891 234.313C105.356 234.562 105.707 234.953 105.945 235.486C106.183 236.019 106.302 236.693 106.302 237.509V243H105.01V237.594C105.01 237.016 104.925 236.54 104.755 236.166C104.597 235.792 104.353 235.52 104.024 235.35C103.707 235.18 103.305 235.101 102.817 235.112C102.432 235.112 102.075 235.174 101.746 235.299C101.429 235.424 101.151 235.594 100.913 235.809C100.675 236.013 100.488 236.245 100.352 236.506C100.216 236.755 100.148 237.005 100.148 237.254V243H99.5194C99.4174 243 99.3097 243 99.1964 243C99.0831 243 98.9697 243 98.8564 243Z" fill="#6D6F6D"/>
<path d="M226.022 243V231.1H230.816C231.484 231.1 232.085 231.259 232.618 231.576C233.162 231.893 233.587 232.324 233.893 232.868C234.21 233.412 234.369 234.03 234.369 234.721C234.369 235.39 234.21 236.002 233.893 236.557C233.587 237.112 233.162 237.554 232.618 237.883C232.085 238.212 231.484 238.376 230.816 238.376H227.365V243H226.022ZM233.196 243L230.17 237.73L231.564 237.407L234.828 243.017L233.196 243ZM227.365 237.067H230.969C231.365 237.067 231.717 236.965 232.023 236.761C232.329 236.557 232.567 236.279 232.737 235.928C232.907 235.565 232.992 235.157 232.992 234.704C232.992 234.251 232.89 233.854 232.686 233.514C232.493 233.163 232.221 232.891 231.87 232.698C231.518 232.494 231.11 232.392 230.646 232.392H227.365V237.067ZM240.548 243.17C239.652 243.17 238.859 242.977 238.168 242.592C237.476 242.195 236.932 241.651 236.536 240.96C236.15 240.269 235.958 239.481 235.958 238.597C235.958 237.906 236.065 237.277 236.281 236.71C236.507 236.132 236.813 235.639 237.199 235.231C237.595 234.812 238.066 234.489 238.61 234.262C239.154 234.035 239.749 233.922 240.395 233.922C240.961 233.922 241.488 234.024 241.976 234.228C242.474 234.432 242.905 234.727 243.268 235.112C243.63 235.486 243.908 235.934 244.101 236.455C244.293 236.965 244.378 237.532 244.356 238.155L244.339 238.801H236.893L236.621 237.747H243.268L243.03 238.036L243.047 237.611C243.024 237.124 242.888 236.693 242.639 236.319C242.389 235.945 242.066 235.65 241.67 235.435C241.284 235.22 240.859 235.112 240.395 235.112C239.737 235.112 239.171 235.254 238.695 235.537C238.219 235.809 237.856 236.2 237.607 236.71C237.369 237.209 237.244 237.809 237.233 238.512C237.244 239.215 237.391 239.827 237.675 240.348C237.958 240.858 238.355 241.26 238.865 241.555C239.386 241.838 239.987 241.98 240.667 241.98C241.154 241.98 241.607 241.901 242.027 241.742C242.446 241.572 242.871 241.294 243.302 240.909L243.948 241.827C243.676 242.099 243.353 242.337 242.979 242.541C242.616 242.734 242.225 242.887 241.806 243C241.386 243.113 240.967 243.17 240.548 243.17ZM251.857 243V237.05C251.857 236.472 251.653 236.007 251.245 235.656C250.837 235.305 250.299 235.129 249.63 235.129C249.075 235.129 248.571 235.242 248.117 235.469C247.664 235.696 247.262 236.036 246.91 236.489L246.06 235.639C246.57 235.061 247.126 234.63 247.726 234.347C248.338 234.064 249.001 233.922 249.715 233.922C250.395 233.922 250.985 234.035 251.483 234.262C251.982 234.489 252.362 234.817 252.622 235.248C252.894 235.679 253.03 236.2 253.03 236.812V243H251.857ZM248.797 243.17C248.219 243.17 247.704 243.057 247.25 242.83C246.797 242.603 246.434 242.292 246.162 241.895C245.902 241.487 245.771 241.011 245.771 240.467C245.771 240.025 245.851 239.634 246.009 239.294C246.179 238.954 246.423 238.671 246.74 238.444C247.058 238.217 247.46 238.047 247.947 237.934C248.435 237.809 248.99 237.747 249.613 237.747H252.435L252.333 238.818H249.443C249.047 238.818 248.695 238.852 248.389 238.92C248.095 238.988 247.84 239.096 247.624 239.243C247.42 239.379 247.262 239.549 247.148 239.753C247.046 239.946 246.995 240.178 246.995 240.45C246.995 240.767 247.075 241.051 247.233 241.3C247.403 241.538 247.624 241.725 247.896 241.861C248.18 241.986 248.497 242.048 248.848 242.048C249.313 242.048 249.749 241.969 250.157 241.81C250.565 241.64 250.928 241.413 251.245 241.13C251.574 240.835 251.835 240.507 252.027 240.144L252.384 240.96C252.135 241.391 251.823 241.776 251.449 242.116C251.075 242.445 250.662 242.705 250.208 242.898C249.766 243.079 249.296 243.17 248.797 243.17ZM259.068 243.17C258.241 243.17 257.504 242.972 256.858 242.575C256.223 242.167 255.719 241.617 255.345 240.926C254.971 240.235 254.784 239.447 254.784 238.563C254.784 237.668 254.971 236.874 255.345 236.183C255.719 235.48 256.223 234.931 256.858 234.534C257.504 234.126 258.224 233.922 259.017 233.922C259.459 233.922 259.89 233.996 260.309 234.143C260.728 234.29 261.102 234.494 261.431 234.755C261.771 235.004 262.043 235.288 262.247 235.605C262.451 235.922 262.564 236.251 262.587 236.591H262.23V230.42H263.522V243H262.23V240.603L262.502 240.586C262.468 240.926 262.349 241.249 262.145 241.555C261.941 241.861 261.68 242.139 261.363 242.388C261.057 242.626 260.706 242.819 260.309 242.966C259.912 243.102 259.499 243.17 259.068 243.17ZM259.221 242.031C259.81 242.031 260.332 241.884 260.785 241.589C261.25 241.283 261.612 240.869 261.873 240.348C262.134 239.827 262.264 239.226 262.264 238.546C262.264 237.866 262.134 237.265 261.873 236.744C261.612 236.223 261.25 235.809 260.785 235.503C260.332 235.197 259.805 235.044 259.204 235.044C258.603 235.044 258.065 235.197 257.589 235.503C257.124 235.809 256.756 236.228 256.484 236.761C256.223 237.282 256.093 237.883 256.093 238.563C256.093 239.22 256.223 239.815 256.484 240.348C256.756 240.869 257.124 241.283 257.589 241.589C258.065 241.884 258.609 242.031 259.221 242.031Z" fill="#6D6F6D"/>
<path d="M393.008 243V241.742H395.031V232.358H393.008V231.1H398.414V232.358H396.374V241.742H398.414V243H393.008ZM400.713 243V234.075H402.005V235.979L401.75 236.132C401.875 235.735 402.102 235.373 402.43 235.044C402.759 234.715 403.156 234.449 403.62 234.245C404.085 234.03 404.567 233.922 405.065 233.922C405.734 233.922 406.295 234.052 406.748 234.313C407.213 234.562 407.564 234.953 407.802 235.486C408.04 236.019 408.159 236.693 408.159 237.509V243H406.867V237.594C406.867 237.016 406.782 236.54 406.612 236.166C406.454 235.792 406.21 235.52 405.881 235.35C405.564 235.18 405.162 235.101 404.674 235.112C404.289 235.112 403.932 235.174 403.603 235.299C403.286 235.424 403.008 235.594 402.77 235.809C402.532 236.013 402.345 236.245 402.209 236.506C402.073 236.755 402.005 237.005 402.005 237.254V243H401.376C401.274 243 401.167 243 401.053 243C400.94 243 400.827 243 400.713 243ZM413.517 243.17C412.769 243.17 412.095 243.04 411.494 242.779C410.893 242.507 410.406 242.122 410.032 241.623L410.916 240.858C411.245 241.266 411.636 241.572 412.089 241.776C412.542 241.98 413.058 242.082 413.636 242.082C413.931 242.082 414.191 242.048 414.418 241.98C414.645 241.901 414.837 241.799 414.996 241.674C415.155 241.538 415.268 241.385 415.336 241.215C415.415 241.034 415.455 240.841 415.455 240.637C415.455 240.263 415.308 239.963 415.013 239.736C414.854 239.623 414.633 239.515 414.35 239.413C414.078 239.3 413.744 239.192 413.347 239.09C412.735 238.943 412.219 238.773 411.8 238.58C411.392 238.376 411.069 238.144 410.831 237.883C410.65 237.679 410.514 237.458 410.423 237.22C410.332 236.982 410.287 236.71 410.287 236.404C410.287 235.917 410.423 235.486 410.695 235.112C410.967 234.738 411.335 234.449 411.8 234.245C412.276 234.03 412.814 233.922 413.415 233.922C413.823 233.922 414.225 233.979 414.622 234.092C415.03 234.205 415.404 234.37 415.744 234.585C416.084 234.8 416.379 235.061 416.628 235.367L415.863 236.183C415.636 235.945 415.387 235.741 415.115 235.571C414.854 235.39 414.582 235.254 414.299 235.163C414.016 235.061 413.738 235.01 413.466 235.01C413.171 235.01 412.905 235.044 412.667 235.112C412.429 235.169 412.225 235.259 412.055 235.384C411.896 235.497 411.777 235.639 411.698 235.809C411.619 235.968 411.579 236.155 411.579 236.37C411.59 236.529 411.63 236.687 411.698 236.846C411.766 236.993 411.862 237.118 411.987 237.22C412.146 237.345 412.372 237.469 412.667 237.594C412.962 237.707 413.319 237.809 413.738 237.9C414.282 238.036 414.741 238.189 415.115 238.359C415.489 238.518 415.789 238.71 416.016 238.937C416.254 239.141 416.424 239.379 416.526 239.651C416.628 239.923 416.679 240.235 416.679 240.586C416.679 241.096 416.543 241.549 416.271 241.946C415.999 242.331 415.625 242.632 415.149 242.847C414.673 243.062 414.129 243.17 413.517 243.17ZM418.949 243V234.075H420.241V243H418.949ZM419.578 231.984C419.283 231.984 419.051 231.905 418.881 231.746C418.722 231.576 418.643 231.355 418.643 231.083C418.643 230.811 418.722 230.596 418.881 230.437C419.051 230.267 419.283 230.182 419.578 230.182C419.872 230.182 420.099 230.261 420.258 230.42C420.428 230.579 420.513 230.8 420.513 231.083C420.513 231.344 420.433 231.559 420.275 231.729C420.116 231.899 419.884 231.984 419.578 231.984ZM426.854 246.961C426.219 246.961 425.601 246.859 425.001 246.655C424.411 246.451 423.93 246.179 423.556 245.839L424.032 244.819C424.372 245.114 424.791 245.352 425.29 245.533C425.8 245.714 426.315 245.805 426.837 245.805C427.471 245.805 428.021 245.68 428.486 245.431C428.95 245.182 429.313 244.819 429.574 244.343C429.834 243.867 429.965 243.289 429.965 242.609V240.654L430.135 240.705C430.055 241.147 429.846 241.555 429.506 241.929C429.177 242.303 428.769 242.603 428.282 242.83C427.806 243.057 427.301 243.17 426.769 243.17C425.93 243.17 425.176 242.972 424.508 242.575C423.85 242.167 423.329 241.617 422.944 240.926C422.57 240.235 422.383 239.447 422.383 238.563C422.383 237.668 422.57 236.874 422.944 236.183C423.329 235.48 423.85 234.931 424.508 234.534C425.165 234.126 425.896 233.922 426.701 233.922C427.052 233.922 427.392 233.967 427.721 234.058C428.049 234.149 428.355 234.279 428.639 234.449C428.922 234.608 429.177 234.789 429.404 234.993C429.63 235.197 429.817 235.418 429.965 235.656C430.112 235.894 430.208 236.132 430.254 236.37L429.965 236.455L429.982 234.075H431.257V242.524C431.257 243.227 431.149 243.85 430.934 244.394C430.73 244.949 430.429 245.414 430.033 245.788C429.647 246.173 429.183 246.462 428.639 246.655C428.106 246.859 427.511 246.961 426.854 246.961ZM426.888 241.963C427.488 241.963 428.021 241.821 428.486 241.538C428.962 241.243 429.33 240.841 429.591 240.331C429.863 239.81 429.999 239.215 429.999 238.546C429.999 237.877 429.863 237.288 429.591 236.778C429.33 236.257 428.962 235.849 428.486 235.554C428.021 235.259 427.483 235.112 426.871 235.112C426.259 235.112 425.709 235.265 425.222 235.571C424.746 235.866 424.372 236.274 424.1 236.795C423.828 237.305 423.692 237.894 423.692 238.563C423.692 239.209 423.828 239.793 424.1 240.314C424.372 240.824 424.746 241.226 425.222 241.521C425.709 241.816 426.264 241.963 426.888 241.963ZM433.684 243V230.42H434.976V235.979L434.721 236.132C434.846 235.735 435.072 235.373 435.401 235.044C435.741 234.704 436.138 234.432 436.591 234.228C437.056 234.024 437.537 233.922 438.036 233.922C438.705 233.922 439.266 234.052 439.719 234.313C440.184 234.562 440.535 234.953 440.773 235.486C441.011 236.019 441.13 236.693 441.13 237.509V243H439.838V237.594C439.838 237.016 439.753 236.54 439.583 236.166C439.424 235.792 439.181 235.52 438.852 235.35C438.535 235.18 438.132 235.101 437.645 235.112C437.26 235.112 436.903 235.174 436.574 235.299C436.257 235.424 435.979 235.594 435.741 235.809C435.503 236.013 435.316 236.245 435.18 236.506C435.044 236.755 434.976 237.005 434.976 237.254V243H434.347C434.245 243 434.137 243 434.024 243C433.911 243 433.797 243 433.684 243ZM444.771 243V231.797H446.063V243H444.771ZM442.714 235.333V234.075H448.29V235.333H442.714ZM453.161 243.17C452.413 243.17 451.739 243.04 451.138 242.779C450.538 242.507 450.05 242.122 449.676 241.623L450.56 240.858C450.889 241.266 451.28 241.572 451.733 241.776C452.187 241.98 452.702 242.082 453.28 242.082C453.575 242.082 453.836 242.048 454.062 241.98C454.289 241.901 454.482 241.799 454.64 241.674C454.799 241.538 454.912 241.385 454.98 241.215C455.06 241.034 455.099 240.841 455.099 240.637C455.099 240.263 454.952 239.963 454.657 239.736C454.499 239.623 454.278 239.515 453.994 239.413C453.722 239.3 453.388 239.192 452.991 239.09C452.379 238.943 451.864 238.773 451.444 238.58C451.036 238.376 450.713 238.144 450.475 237.883C450.294 237.679 450.158 237.458 450.067 237.22C449.977 236.982 449.931 236.71 449.931 236.404C449.931 235.917 450.067 235.486 450.339 235.112C450.611 234.738 450.98 234.449 451.444 234.245C451.92 234.03 452.459 233.922 453.059 233.922C453.467 233.922 453.87 233.979 454.266 234.092C454.674 234.205 455.048 234.37 455.388 234.585C455.728 234.8 456.023 235.061 456.272 235.367L455.507 236.183C455.281 235.945 455.031 235.741 454.759 235.571C454.499 235.39 454.227 235.254 453.943 235.163C453.66 235.061 453.382 235.01 453.11 235.01C452.816 235.01 452.549 235.044 452.311 235.112C452.073 235.169 451.869 235.259 451.699 235.384C451.541 235.497 451.422 235.639 451.342 235.809C451.263 235.968 451.223 236.155 451.223 236.37C451.235 236.529 451.274 236.687 451.342 236.846C451.41 236.993 451.507 237.118 451.631 237.22C451.79 237.345 452.017 237.469 452.311 237.594C452.606 237.707 452.963 237.809 453.382 237.9C453.926 238.036 454.385 238.189 454.759 238.359C455.133 238.518 455.434 238.71 455.66 238.937C455.898 239.141 456.068 239.379 456.17 239.651C456.272 239.923 456.323 240.235 456.323 240.586C456.323 241.096 456.187 241.549 455.915 241.946C455.643 242.331 455.269 242.632 454.793 242.847C454.317 243.062 453.773 243.17 453.161 243.17Z" fill="#6D6F6D"/>
<path d="M121 238H213" stroke="#6D6F6D" stroke-opacity="0.86" stroke-width="0.3" stroke-linecap="round"/>
<path d="M284 238H377" stroke="#6D6F6D" stroke-opacity="0.86" stroke-width="0.3" stroke-linecap="round"/>
<defs>
<filter id="filter0_d_4277_4388" x="0.777344" y="20.5" width="141.965" height="171" filterUnits="userSpaceOnUse" color-interpolation-filters="sRGB">
<feFlood flood-opacity="0" result="BackgroundImageFix"/>
<feColorMatrix in="SourceAlpha" type="matrix" values="0 0 0 0 0 0 0 0 0 0 0 0 0 0 0 0 0 0 127 0" result="hardAlpha"/>
<feOffset dx="1" dy="3"/>
<feGaussianBlur stdDeviation="13.25"/>
<feComposite in2="hardAlpha" operator="out"/>
<feColorMatrix type="matrix" values="0 0 0 0 0.530566 0 0 0 0 0.530566 0 0 0 0 0.530566 0 0 0 0.15 0"/>
<feBlend mode="normal" in2="BackgroundImageFix" result="effect1_dropShadow_4277_4388"/>
<feBlend mode="normal" in="SourceGraphic" in2="effect1_dropShadow_4277_4388" result="shape"/>
</filter>
<filter id="filter1_d_4277_4388" x="38.5" y="9.5" width="161.562" height="196.992" filterUnits="userSpaceOnUse" color-interpolation-filters="sRGB">
<feFlood flood-opacity="0" result="BackgroundImageFix"/>
<feColorMatrix in="SourceAlpha" type="matrix" values="0 0 0 0 0 0 0 0 0 0 0 0 0 0 0 0 0 0 127 0" result="hardAlpha"/>
<feOffset dx="1" dy="3"/>
<feGaussianBlur stdDeviation="13.25"/>
<feComposite in2="hardAlpha" operator="out"/>
<feColorMatrix type="matrix" values="0 0 0 0 0.530566 0 0 0 0 0.530566 0 0 0 0 0.530566 0 0 0 0.15 0"/>
<feBlend mode="normal" in2="BackgroundImageFix" result="effect1_dropShadow_4277_4388"/>
<feBlend mode="normal" in="SourceGraphic" in2="effect1_dropShadow_4277_4388" result="shape"/>
</filter>
<filter id="filter2_d_4277_4388" x="96.5" y="1.53125" width="171.223" height="209.805" filterUnits="userSpaceOnUse" color-interpolation-filters="sRGB">
<feFlood flood-opacity="0" result="BackgroundImageFix"/>
<feColorMatrix in="SourceAlpha" type="matrix" values="0 0 0 0 0 0 0 0 0 0 0 0 0 0 0 0 0 0 127 0" result="hardAlpha"/>
<feOffset dx="1" dy="3"/>
<feGaussianBlur stdDeviation="13.25"/>
<feComposite in2="hardAlpha" operator="out"/>
<feColorMatrix type="matrix" values="0 0 0 0 0.530566 0 0 0 0 0.530566 0 0 0 0 0.530566 0 0 0 0.15 0"/>
<feBlend mode="normal" in2="BackgroundImageFix" result="effect1_dropShadow_4277_4388"/>
<feBlend mode="normal" in="SourceGraphic" in2="effect1_dropShadow_4277_4388" result="shape"/>
</filter>
<filter id="filter3_d_4277_4388" x="334.227" y="19.6641" width="143.273" height="172.734" filterUnits="userSpaceOnUse" color-interpolation-filters="sRGB">
<feFlood flood-opacity="0" result="BackgroundImageFix"/>
<feColorMatrix in="SourceAlpha" type="matrix" values="0 0 0 0 0 0 0 0 0 0 0 0 0 0 0 0 0 0 127 0" result="hardAlpha"/>
<feOffset dx="1" dy="3"/>
<feGaussianBlur stdDeviation="13.25"/>
<feComposite in2="hardAlpha" operator="out"/>
<feColorMatrix type="matrix" values="0 0 0 0 0.530566 0 0 0 0 0.530566 0 0 0 0 0.530566 0 0 0 0.15 0"/>
<feBlend mode="normal" in2="BackgroundImageFix" result="effect1_dropShadow_4277_4388"/>
<feBlend mode="normal" in="SourceGraphic" in2="effect1_dropShadow_4277_4388" result="shape"/>
</filter>
<filter id="filter4_d_4277_4388" x="276.07" y="8.5" width="163.156" height="199.109" filterUnits="userSpaceOnUse" color-interpolation-filters="sRGB">
<feFlood flood-opacity="0" result="BackgroundImageFix"/>
<feColorMatrix in="SourceAlpha" type="matrix" values="0 0 0 0 0 0 0 0 0 0 0 0 0 0 0 0 0 0 127 0" result="hardAlpha"/>
<feOffset dx="1" dy="3"/>
<feGaussianBlur stdDeviation="13.25"/>
<feComposite in2="hardAlpha" operator="out"/>
<feColorMatrix type="matrix" values="0 0 0 0 0.530566 0 0 0 0 0.530566 0 0 0 0 0.530566 0 0 0 0.15 0"/>
<feBlend mode="normal" in2="BackgroundImageFix" result="effect1_dropShadow_4277_4388"/>
<feBlend mode="normal" in="SourceGraphic" in2="effect1_dropShadow_4277_4388" result="shape"/>
</filter>
<filter id="filter5_d_4277_4388" x="214.727" y="0.390625" width="172.961" height="212.109" filterUnits="userSpaceOnUse" color-interpolation-filters="sRGB">
<feFlood flood-opacity="0" result="BackgroundImageFix"/>
<feColorMatrix in="SourceAlpha" type="matrix" values="0 0 0 0 0 0 0 0 0 0 0 0 0 0 0 0 0 0 127 0" result="hardAlpha"/>
<feOffset dx="1" dy="3"/>
<feGaussianBlur stdDeviation="13.25"/>
<feComposite in2="hardAlpha" operator="out"/>
<feColorMatrix type="matrix" values="0 0 0 0 0.530566 0 0 0 0 0.530566 0 0 0 0 0.530566 0 0 0 0.15 0"/>
<feBlend mode="normal" in2="BackgroundImageFix" result="effect1_dropShadow_4277_4388"/>
<feBlend mode="normal" in="SourceGraphic" in2="effect1_dropShadow_4277_4388" result="shape"/>
</filter>
</defs>
</svg>
